<svg xmlns="http://www.w3.org/2000/svg" width="480" height="240"><rect x="0" y="0" width="480" height="240" fill="#ffffff"/><line x1="40.0" y1="210.0" x2="460.0" y2="210.0" stroke="#333333" stroke-width="1"/><line x1="40.0" y1="20.0" x2="40.0" y2="210.0" stroke="#333333" stroke-width="1"/><line x1="40.00" y1="20.00" x2="40.00" y2="210.00" stroke="#dddddd" stroke-width="1" opacity="0.6"/><text x="40.00" y="224.00" font-size="10" fill="#333333" text-anchor="middle">0.00</text><line x1="124.00" y1="20.00" x2="124.00" y2="210.00" stroke="#dddddd" stroke-width="1" opacity="0.6"/><text x="124.00" y="224.00" font-size="10" fill="#333333" text-anchor="middle">1.20</text><line x1="208.00" y1="20.00" x2="208.00" y2="210.00" stroke="#dddddd" stroke-width="1" opacity="0.6"/><text x="208.00" y="224.00" font-size="10" fill="#333333" text-anchor="middle">2.40</text><line x1="292.00" y1="20.00" x2="292.00" y2="210.00" stroke="#dddddd" stroke-width="1" opacity="0.6"/><text x="292.00" y="224.00" font-size="10" fill="#333333" text-anchor="middle">3.60</text><line x1="376.00" y1="20.00" x2="376.00" y2="210.00" stroke="#dddddd" stroke-width="1" opacity="0.6"/><text x="376.00" y="224.00" font-size="10" fill="#333333" text-anchor="middle">4.80</text><line x1="460.00" y1="20.00" x2="460.00" y2="210.00" stroke="#dddddd" stroke-width="1" opacity="0.6"/><text x="460.00" y="224.00" font-size="10" fill="#333333" text-anchor="middle">6.00</text><line x1="40.00" y1="210.00" x2="460.00" y2="210.00" stroke="#dddddd" stroke-width="1" opacity="0.6"/><text x="34.00" y="213.00" font-size="10" fill="#333333" text-anchor="end">0.00</text><line x1="40.00" y1="162.50" x2="460.00" y2="162.50" stroke="#dddddd" stroke-width="1" opacity="0.6"/><text x="34.00" y="165.50" font-size="10" fill="#333333" text-anchor="end">0.25</text><line x1="40.00" y1="115.00" x2="460.00" y2="115.00" stroke="#dddddd" stroke-width="1" opacity="0.6"/><text x="34.00" y="118.00" font-size="10" fill="#333333" text-anchor="end">0.50</text><line x1="40.00" y1="67.50" x2="460.00" y2="67.50" stroke="#dddddd" stroke-width="1" opacity="0.6"/><text x="34.00" y="70.50" font-size="10" fill="#333333" text-anchor="end">0.75</text><line x1="40.00" y1="20.00" x2="460.00" y2="20.00" stroke="#dddddd" stroke-width="1" opacity="0.6"/><text x="34.00" y="23.00" font-size="10" fill="#333333" text-anchor="end">1.00</text><path d="M40.00,20.00 L41.40,23.77 L42.81,27.47 L44.21,31.10 L45.62,34.65 L47.02,38.14 L48.43,41.55 L49.83,44.90 L51.24,48.18 L52.64,51.39 L54.05,54.55 L55.45,57.63 L56.86,60.66 L58.26,63.63 L59.67,66.54 L61.07,69.39 L62.47,72.18 L63.88,74.92 L65.28,77.60 L66.69,80.23 L68.09,82.81 L69.50,85.34 L70.90,87.81 L72.31,90.24 L73.71,92.62 L75.12,94.95 L76.52,97.24 L77.93,99.48 L79.33,101.67 L80.74,103.83 L82.14,105.93 L83.55,108.00 L84.95,110.03 L86.35,112.01 L87.76,113.96 L89.16,115.87 L90.57,117.74 L91.97,119.57 L93.38,121.37 L94.78,123.13 L96.19,124.86 L97.59,126.55 L99.00,128.21 L100.40,129.83 L101.81,131.42 L103.21,132.98 L104.62,134.51 L106.02,136.01 L107.42,137.48 L108.83,138.92 L110.23,140.34 L111.64,141.72 L113.04,143.08 L114.45,144.41 L115.85,145.71 L117.26,146.99 L118.66,148.24 L120.07,149.47 L121.47,150.67 L122.88,151.85 L124.28,153.00 L125.69,154.13 L127.09,155.24 L128.49,156.33 L129.90,157.40 L131.30,158.44 L132.71,159.47 L134.11,160.47 L135.52,161.46 L136.92,162.42 L138.33,163.37 L139.73,164.29 L141.14,165.20 L142.54,166.09 L143.95,166.96 L145.35,167.82 L146.76,168.66 L148.16,169.48 L149.57,170.28 L150.97,171.07 L152.37,171.84 L153.78,172.60 L155.18,173.35 L156.59,174.07 L157.99,174.79 L159.40,175.49 L160.80,176.17 L162.21,176.84 L163.61,177.50 L165.02,178.15 L166.42,178.78 L167.83,179.40 L169.23,180.01 L170.64,180.61 L172.04,181.19 L173.44,181.76 L174.85,182.32 L176.25,182.87 L177.66,183.41 L179.06,183.94 L180.47,184.46 L181.87,184.97 L183.28,185.46 L184.68,185.95 L186.09,186.43 L187.49,186.90 L188.90,187.36 L190.30,187.81 L191.71,188.25 L193.11,188.68 L194.52,189.10 L195.92,189.52 L197.32,189.92 L198.73,190.32 L200.13,190.71 L201.54,191.10 L202.94,191.47 L204.35,191.84 L205.75,192.20 L207.16,192.55 L208.56,192.90 L209.97,193.24 L211.37,193.57 L212.78,193.90 L214.18,194.22 L215.59,194.53 L216.99,194.84 L218.39,195.14 L219.80,195.44 L221.20,195.73 L222.61,196.01 L224.01,196.29 L225.42,196.56 L226.82,196.83 L228.23,197.09 L229.63,197.35 L231.04,197.60 L232.44,197.84 L233.85,198.09 L235.25,198.32 L236.66,198.55 L238.06,198.78 L239.46,199.00 L240.87,199.22 L242.27,199.44 L243.68,199.65 L245.08,199.85 L246.49,200.05 L247.89,200.25 L249.30,200.45 L250.70,200.63 L252.11,200.82 L253.51,201.00 L254.92,201.18 L256.32,201.36 L257.73,201.53 L259.13,201.70 L260.54,201.86 L261.94,202.02 L263.34,202.18 L264.75,202.34 L266.15,202.49 L267.56,202.64 L268.96,202.79 L270.37,202.93 L271.77,203.07 L273.18,203.21 L274.58,203.34 L275.99,203.47 L277.39,203.60 L278.80,203.73 L280.20,203.86 L281.61,203.98 L283.01,204.10 L284.41,204.21 L285.82,204.33 L287.22,204.44 L288.63,204.55 L290.03,204.66 L291.44,204.77 L292.84,204.87 L294.25,204.97 L295.65,205.07 L297.06,205.17 L298.46,205.27 L299.87,205.36 L301.27,205.45 L302.68,205.54 L304.08,205.63 L305.48,205.72 L306.89,205.80 L308.29,205.89 L309.70,205.97 L311.10,206.05 L312.51,206.13 L313.91,206.20 L315.32,206.28 L316.72,206.35 L318.13,206.43 L319.53,206.50 L320.94,206.57 L322.34,206.63 L323.75,206.70 L325.15,206.77 L326.56,206.83 L327.96,206.89 L329.36,206.96 L330.77,207.02 L332.17,207.08 L333.58,207.13 L334.98,207.19 L336.39,207.25 L337.79,207.30 L339.20,207.35 L340.60,207.41 L342.01,207.46 L343.41,207.51 L344.82,207.56 L346.22,207.61 L347.63,207.65 L349.03,207.70 L350.43,207.75 L351.84,207.79 L353.24,207.84 L354.65,207.88 L356.05,207.92 L357.46,207.96 L358.86,208.00 L360.27,208.04 L361.67,208.08 L363.08,208.12 L364.48,208.16 L365.89,208.19 L367.29,208.23 L368.70,208.26 L370.10,208.30 L371.51,208.33 L372.91,208.37 L374.31,208.40 L375.72,208.43 L377.12,208.46 L378.53,208.49 L379.93,208.52 L381.34,208.55 L382.74,208.58 L384.15,208.61 L385.55,208.64 L386.96,208.66 L388.36,208.69 L389.77,208.72 L391.17,208.74 L392.58,208.77 L393.98,208.79 L395.38,208.81 L396.79,208.84 L398.19,208.86 L399.60,208.88 L401.00,208.91 L402.41,208.93 L403.81,208.95 L405.22,208.97 L406.62,208.99 L408.03,209.01 L409.43,209.03 L410.84,209.05 L412.24,209.07 L413.65,209.09 L415.05,209.10 L416.45,209.12 L417.86,209.14 L419.26,209.16 L420.67,209.17 L422.07,209.19 L423.48,209.21 L424.88,209.22 L426.29,209.24 L427.69,209.25 L429.10,209.27 L430.50,209.28 L431.91,209.30 L433.31,209.31 L434.72,209.32 L436.12,209.34 L437.53,209.35 L438.93,209.36 L440.33,209.38 L441.74,209.39 L443.14,209.40 L444.55,209.41 L445.95,209.42 L447.36,209.44 L448.76,209.45 L450.17,209.46 L451.57,209.47 L452.98,209.48 L454.38,209.49 L455.79,209.50 L457.19,209.51 L458.60,209.52 L460.00,209.53" fill="none" stroke="#0a84ff" stroke-width="2"/></svg>