<svg xmlns="http://www.w3.org/2000/svg" width="480" height="240"><rect x="0" y="0" width="480" height="240" fill="#ffffff"/><line x1="40.0" y1="210.0" x2="460.0" y2="210.0" stroke="#333333" stroke-width="1"/><line x1="40.0" y1="20.0" x2="40.0" y2="210.0" stroke="#333333" stroke-width="1"/><line x1="40.00" y1="20.00" x2="40.00" y2="210.00" stroke="#dddddd" stroke-width="1" opacity="0.6"/><text x="40.00" y="224.00" font-size="10" fill="#333333" text-anchor="middle">-0.63</text><line x1="124.00" y1="20.00" x2="124.00" y2="210.00" stroke="#dddddd" stroke-width="1" opacity="0.6"/><text x="124.00" y="224.00" font-size="10" fill="#333333" text-anchor="middle">-0.38</text><line x1="208.00" y1="20.00" x2="208.00" y2="210.00" stroke="#dddddd" stroke-width="1" opacity="0.6"/><text x="208.00" y="224.00" font-size="10" fill="#333333" text-anchor="middle">-0.13</text><line x1="292.00" y1="20.00" x2="292.00" y2="210.00" stroke="#dddddd" stroke-width="1" opacity="0.6"/><text x="292.00" y="224.00" font-size="10" fill="#333333" text-anchor="middle">0.13</text><line x1="376.00" y1="20.00" x2="376.00" y2="210.00" stroke="#dddddd" stroke-width="1" opacity="0.6"/><text x="376.00" y="224.00" font-size="10" fill="#333333" text-anchor="middle">0.38</text><line x1="460.00" y1="20.00" x2="460.00" y2="210.00" stroke="#dddddd" stroke-width="1" opacity="0.6"/><text x="460.00" y="224.00" font-size="10" fill="#333333" text-anchor="middle">0.63</text><line x1="40.00" y1="210.00" x2="460.00" y2="210.00" stroke="#dddddd" stroke-width="1" opacity="0.6"/><text x="34.00" y="213.00" font-size="10" fill="#333333" text-anchor="end">0.00</text><line x1="40.00" y1="162.50" x2="460.00" y2="162.50" stroke="#dddddd" stroke-width="1" opacity="0.6"/><text x="34.00" y="165.50" font-size="10" fill="#333333" text-anchor="end">0.10</text><line x1="40.00" y1="115.00" x2="460.00" y2="115.00" stroke="#dddddd" stroke-width="1" opacity="0.6"/><text x="34.00" y="118.00" font-size="10" fill="#333333" text-anchor="end">0.20</text><line x1="40.00" y1="67.50" x2="460.00" y2="67.50" stroke="#dddddd" stroke-width="1" opacity="0.6"/><text x="34.00" y="70.50" font-size="10" fill="#333333" text-anchor="end">0.30</text><line x1="40.00" y1="20.00" x2="460.00" y2="20.00" stroke="#dddddd" stroke-width="1" opacity="0.6"/><text x="34.00" y="23.00" font-size="10" fill="#333333" text-anchor="end">0.40</text><path d="M40.00,53.85 L41.05,53.54 L42.11,53.23 L43.16,52.93 L44.21,52.63 L45.26,52.32 L46.32,52.02 L47.37,51.72 L48.42,51.42 L49.47,51.12 L50.53,50.82 L51.58,50.53 L52.63,50.23 L53.68,49.94 L54.74,49.64 L55.79,49.35 L56.84,49.06 L57.89,48.77 L58.95,48.48 L60.00,48.19 L61.05,47.90 L62.11,47.62 L63.16,47.33 L64.21,47.05 L65.26,46.76 L66.32,46.48 L67.37,46.20 L68.42,45.92 L69.47,45.64 L70.53,45.37 L71.58,45.09 L72.63,44.81 L73.68,44.54 L74.74,44.27 L75.79,44.00 L76.84,43.73 L77.89,43.46 L78.95,43.19 L80.00,42.92 L81.05,42.66 L82.11,42.39 L83.16,42.13 L84.21,41.87 L85.26,41.61 L86.32,41.35 L87.37,41.09 L88.42,40.83 L89.47,40.58 L90.53,40.32 L91.58,40.07 L92.63,39.82 L93.68,39.57 L94.74,39.32 L95.79,39.07 L96.84,38.83 L97.89,38.58 L98.95,38.34 L100.00,38.10 L101.05,37.86 L102.11,37.62 L103.16,37.38 L104.21,37.14 L105.26,36.91 L106.32,36.67 L107.37,36.44 L108.42,36.21 L109.47,35.98 L110.53,35.75 L111.58,35.52 L112.63,35.30 L113.68,35.07 L114.74,34.85 L115.79,34.63 L116.84,34.41 L117.89,34.19 L118.95,33.98 L120.00,33.76 L121.05,33.55 L122.11,33.33 L123.16,33.12 L124.21,32.91 L125.26,32.71 L126.32,32.50 L127.37,32.30 L128.42,32.09 L129.47,31.89 L130.53,31.69 L131.58,31.49 L132.63,31.29 L133.68,31.10 L134.74,30.90 L135.79,30.71 L136.84,30.52 L137.89,30.33 L138.95,30.14 L140.00,29.96 L141.05,29.77 L142.11,29.59 L143.16,29.41 L144.21,29.23 L145.26,29.05 L146.32,28.87 L147.37,28.70 L148.42,28.52 L149.47,28.35 L150.53,28.18 L151.58,28.01 L152.63,27.85 L153.68,27.68 L154.74,27.52 L155.79,27.36 L156.84,27.20 L157.89,27.04 L158.95,26.88 L160.00,26.72 L161.05,26.57 L162.11,26.42 L163.16,26.27 L164.21,26.12 L165.26,25.97 L166.32,25.83 L167.37,25.68 L168.42,25.54 L169.47,25.40 L170.53,25.26 L171.58,25.13 L172.63,24.99 L173.68,24.86 L174.74,24.73 L175.79,24.60 L176.84,24.47 L177.89,24.34 L178.95,24.22 L180.00,24.10 L181.05,23.98 L182.11,23.86 L183.16,23.74 L184.21,23.62 L185.26,23.51 L186.32,23.40 L187.37,23.29 L188.42,23.18 L189.47,23.07 L190.53,22.97 L191.58,22.86 L192.63,22.76 L193.68,22.66 L194.74,22.56 L195.79,22.47 L196.84,22.37 L197.89,22.28 L198.95,22.19 L200.00,22.10 L201.05,22.01 L202.11,21.93 L203.16,21.85 L204.21,21.76 L205.26,21.68 L206.32,21.61 L207.37,21.53 L208.42,21.46 L209.47,21.38 L210.53,21.31 L211.58,21.24 L212.63,21.18 L213.68,21.11 L214.74,21.05 L215.79,20.99 L216.84,20.93 L217.89,20.87 L218.95,20.81 L220.00,20.76 L221.05,20.71 L222.11,20.66 L223.16,20.61 L224.21,20.56 L225.26,20.52 L226.32,20.47 L227.37,20.43 L228.42,20.39 L229.47,20.36 L230.53,20.32 L231.58,20.29 L232.63,20.25 L233.68,20.22 L234.74,20.20 L235.79,20.17 L236.84,20.15 L237.89,20.12 L238.95,20.10 L240.00,20.08 L241.05,20.07 L242.11,20.05 L243.16,20.04 L244.21,20.03 L245.26,20.02 L246.32,20.01 L247.37,20.01 L248.42,20.00 L249.47,20.00 L250.53,20.00 L251.58,20.00 L252.63,20.01 L253.68,20.01 L254.74,20.02 L255.79,20.03 L256.84,20.04 L257.89,20.05 L258.95,20.07 L260.00,20.08 L261.05,20.10 L262.11,20.12 L263.16,20.15 L264.21,20.17 L265.26,20.20 L266.32,20.22 L267.37,20.25 L268.42,20.29 L269.47,20.32 L270.53,20.36 L271.58,20.39 L272.63,20.43 L273.68,20.47 L274.74,20.52 L275.79,20.56 L276.84,20.61 L277.89,20.66 L278.95,20.71 L280.00,20.76 L281.05,20.81 L282.11,20.87 L283.16,20.93 L284.21,20.99 L285.26,21.05 L286.32,21.11 L287.37,21.18 L288.42,21.24 L289.47,21.31 L290.53,21.38 L291.58,21.46 L292.63,21.53 L293.68,21.61 L294.74,21.68 L295.79,21.76 L296.84,21.85 L297.89,21.93 L298.95,22.01 L300.00,22.10 L301.05,22.19 L302.11,22.28 L303.16,22.37 L304.21,22.47 L305.26,22.56 L306.32,22.66 L307.37,22.76 L308.42,22.86 L309.47,22.97 L310.53,23.07 L311.58,23.18 L312.63,23.29 L313.68,23.40 L314.74,23.51 L315.79,23.62 L316.84,23.74 L317.89,23.86 L318.95,23.98 L320.00,24.10 L321.05,24.22 L322.11,24.34 L323.16,24.47 L324.21,24.60 L325.26,24.73 L326.32,24.86 L327.37,24.99 L328.42,25.13 L329.47,25.26 L330.53,25.40 L331.58,25.54 L332.63,25.68 L333.68,25.83 L334.74,25.97 L335.79,26.12 L336.84,26.27 L337.89,26.42 L338.95,26.57 L340.00,26.72 L341.05,26.88 L342.11,27.04 L343.16,27.20 L344.21,27.36 L345.26,27.52 L346.32,27.68 L347.37,27.85 L348.42,28.01 L349.47,28.18 L350.53,28.35 L351.58,28.52 L352.63,28.70 L353.68,28.87 L354.74,29.05 L355.79,29.23 L356.84,29.41 L357.89,29.59 L358.95,29.77 L360.00,29.96 L361.05,30.14 L362.11,30.33 L363.16,30.52 L364.21,30.71 L365.26,30.90 L366.32,31.10 L367.37,31.29 L368.42,31.49 L369.47,31.69 L370.53,31.89 L371.58,32.09 L372.63,32.30 L373.68,32.50 L374.74,32.71 L375.79,32.91 L376.84,33.12 L377.89,33.33 L378.95,33.55 L380.00,33.76 L381.05,33.98 L382.11,34.19 L383.16,34.41 L384.21,34.63 L385.26,34.85 L386.32,35.07 L387.37,35.30 L388.42,35.52 L389.47,35.75 L390.53,35.98 L391.58,36.21 L392.63,36.44 L393.68,36.67 L394.74,36.91 L395.79,37.14 L396.84,37.38 L397.89,37.62 L398.95,37.86 L400.00,38.10 L401.05,38.34 L402.11,38.58 L403.16,38.83 L404.21,39.07 L405.26,39.32 L406.32,39.57 L407.37,39.82 L408.42,40.07 L409.47,40.32 L410.53,40.58 L411.58,40.83 L412.63,41.09 L413.68,41.35 L414.74,41.61 L415.79,41.87 L416.84,42.13 L417.89,42.39 L418.95,42.66 L420.00,42.92 L421.05,43.19 L422.11,43.46 L423.16,43.73 L424.21,44.00 L425.26,44.27 L426.32,44.54 L427.37,44.81 L428.42,45.09 L429.47,45.37 L430.53,45.64 L431.58,45.92 L432.63,46.20 L433.68,46.48 L434.74,46.76 L435.79,47.05 L436.84,47.33 L437.89,47.62 L438.95,47.90 L440.00,48.19 L441.05,48.48 L442.11,48.77 L443.16,49.06 L444.21,49.35 L445.26,49.64 L446.32,49.94 L447.37,50.23 L448.42,50.53 L449.47,50.82 L450.53,51.12 L451.58,51.42 L452.63,51.72 L453.68,52.02 L454.74,52.32 L455.79,52.63 L456.84,52.93 L457.89,53.23 L458.95,53.54 L460.00,53.85" fill="none" stroke="#0a84ff" stroke-width="2"/></svg>