<svg xmlns="http://www.w3.org/2000/svg" width="480" height="240"><rect x="0" y="0" width="480" height="240" fill="#ffffff"/><line x1="40.0" y1="210.0" x2="460.0" y2="210.0" stroke="#333333" stroke-width="1"/><line x1="40.0" y1="20.0" x2="40.0" y2="210.0" stroke="#333333" stroke-width="1"/><line x1="40.00" y1="20.00" x2="40.00" y2="210.00" stroke="#dddddd" stroke-width="1" opacity="0.6"/><text x="40.00" y="224.00" font-size="10" fill="#333333" text-anchor="middle">0</text><line x1="124.00" y1="20.00" x2="124.00" y2="210.00" stroke="#dddddd" stroke-width="1" opacity="0.6"/><text x="124.00" y="224.00" font-size="10" fill="#333333" text-anchor="middle">2</text><line x1="208.00" y1="20.00" x2="208.00" y2="210.00" stroke="#dddddd" stroke-width="1" opacity="0.6"/><text x="208.00" y="224.00" font-size="10" fill="#333333" text-anchor="middle">4</text><line x1="292.00" y1="20.00" x2="292.00" y2="210.00" stroke="#dddddd" stroke-width="1" opacity="0.6"/><text x="292.00" y="224.00" font-size="10" fill="#333333" text-anchor="middle">6</text><line x1="376.00" y1="20.00" x2="376.00" y2="210.00" stroke="#dddddd" stroke-width="1" opacity="0.6"/><text x="376.00" y="224.00" font-size="10" fill="#333333" text-anchor="middle">8</text><line x1="460.00" y1="20.00" x2="460.00" y2="210.00" stroke="#dddddd" stroke-width="1" opacity="0.6"/><text x="460.00" y="224.00" font-size="10" fill="#333333" text-anchor="middle">10</text><line x1="40.00" y1="210.00" x2="460.00" y2="210.00" stroke="#dddddd" stroke-width="1" opacity="0.6"/><text x="34.00" y="213.00" font-size="10" fill="#333333" text-anchor="end">0.00</text><line x1="40.00" y1="162.50" x2="460.00" y2="162.50" stroke="#dddddd" stroke-width="1" opacity="0.6"/><text x="34.00" y="165.50" font-size="10" fill="#333333" text-anchor="end">0.06</text><line x1="40.00" y1="115.00" x2="460.00" y2="115.00" stroke="#dddddd" stroke-width="1" opacity="0.6"/><text x="34.00" y="118.00" font-size="10" fill="#333333" text-anchor="end">0.11</text><line x1="40.00" y1="67.50" x2="460.00" y2="67.50" stroke="#dddddd" stroke-width="1" opacity="0.6"/><text x="34.00" y="70.50" font-size="10" fill="#333333" text-anchor="end">0.17</text><line x1="40.00" y1="20.00" x2="460.00" y2="20.00" stroke="#dddddd" stroke-width="1" opacity="0.6"/><text x="34.00" y="23.00" font-size="10" fill="#333333" text-anchor="end">0.22</text><rect x="24.73" y="167.78" width="30.55" height="42.22" fill="#34c759"/><rect x="66.73" y="83.33" width="30.55" height="126.67" fill="#34c759"/><rect x="108.73" y="20.00" width="30.55" height="190.00" fill="#34c759"/><rect x="150.73" y="20.00" width="30.55" height="190.00" fill="#34c759"/><rect x="192.73" y="67.50" width="30.55" height="142.50" fill="#34c759"/><rect x="234.73" y="124.50" width="30.55" height="85.50" fill="#34c759"/><rect x="276.73" y="167.25" width="30.55" height="42.75" fill="#34c759"/><rect x="318.73" y="191.68" width="30.55" height="18.32" fill="#34c759"/><rect x="360.73" y="203.13" width="30.55" height="6.87" fill="#34c759"/><rect x="402.73" y="207.71" width="30.55" height="2.29" fill="#34c759"/><rect x="444.73" y="209.31" width="30.55" height="0.69" fill="#34c759"/>
</svg>